<mxfile host="app.diagrams.net" modified="2021-05-29T07:34:48.686Z" agent="5.0 (Windows NT 10.0; WOW64) AppleWebKit/537.36 (KHTML, like Gecko) Chrome/86.0.4240.198 Safari/537.36" etag="7bmm6UlkvGHzO7WML5bV" version="14.7.2" type="github">
  <diagram id="2zdSn9EP0lPrhDuxT_ka" name="Page-1">
    <mxGraphModel dx="1480" dy="821" grid="1" gridSize="10" guides="1" tooltips="1" connect="1" arrows="1" fold="1" page="1" pageScale="1" pageWidth="827" pageHeight="1169" math="0" shadow="0">
      <root>
        <mxCell id="0" />
        <mxCell id="1" parent="0" />
        <mxCell id="W3-eOHmykisVfeEfEwuK-22" value="" style="edgeStyle=orthogonalEdgeStyle;rounded=0;orthogonalLoop=1;jettySize=auto;html=1;" parent="1" source="W3-eOHmykisVfeEfEwuK-2" target="W3-eOHmykisVfeEfEwuK-21" edge="1">
          <mxGeometry relative="1" as="geometry" />
        </mxCell>
        <mxCell id="W3-eOHmykisVfeEfEwuK-2" value="哈希1" style="rounded=1;whiteSpace=wrap;html=1;" parent="1" vertex="1">
          <mxGeometry x="489" y="790" width="70" height="30" as="geometry" />
        </mxCell>
        <mxCell id="W3-eOHmykisVfeEfEwuK-23" style="edgeStyle=orthogonalEdgeStyle;rounded=0;orthogonalLoop=1;jettySize=auto;html=1;entryX=0.5;entryY=1;entryDx=0;entryDy=0;" parent="1" source="W3-eOHmykisVfeEfEwuK-7" target="W3-eOHmykisVfeEfEwuK-21" edge="1">
          <mxGeometry relative="1" as="geometry" />
        </mxCell>
        <mxCell id="W3-eOHmykisVfeEfEwuK-7" value="哈希2" style="rounded=1;whiteSpace=wrap;html=1;" parent="1" vertex="1">
          <mxGeometry x="569" y="790" width="70" height="30" as="geometry" />
        </mxCell>
        <mxCell id="W3-eOHmykisVfeEfEwuK-19" value="" style="edgeStyle=orthogonalEdgeStyle;rounded=0;orthogonalLoop=1;jettySize=auto;html=1;" parent="1" source="W3-eOHmykisVfeEfEwuK-8" target="W3-eOHmykisVfeEfEwuK-18" edge="1">
          <mxGeometry relative="1" as="geometry" />
        </mxCell>
        <mxCell id="W3-eOHmykisVfeEfEwuK-8" value="哈希3" style="rounded=1;whiteSpace=wrap;html=1;" parent="1" vertex="1">
          <mxGeometry x="659" y="790" width="70" height="30" as="geometry" />
        </mxCell>
        <mxCell id="W3-eOHmykisVfeEfEwuK-20" style="edgeStyle=orthogonalEdgeStyle;rounded=0;orthogonalLoop=1;jettySize=auto;html=1;entryX=0.5;entryY=1;entryDx=0;entryDy=0;" parent="1" source="W3-eOHmykisVfeEfEwuK-9" target="W3-eOHmykisVfeEfEwuK-18" edge="1">
          <mxGeometry relative="1" as="geometry" />
        </mxCell>
        <mxCell id="W3-eOHmykisVfeEfEwuK-9" value="哈希4" style="rounded=1;whiteSpace=wrap;html=1;" parent="1" vertex="1">
          <mxGeometry x="739" y="790" width="70" height="30" as="geometry" />
        </mxCell>
        <mxCell id="W3-eOHmykisVfeEfEwuK-26" value="" style="edgeStyle=orthogonalEdgeStyle;rounded=0;orthogonalLoop=1;jettySize=auto;html=1;" parent="1" source="W3-eOHmykisVfeEfEwuK-10" target="W3-eOHmykisVfeEfEwuK-25" edge="1">
          <mxGeometry relative="1" as="geometry" />
        </mxCell>
        <mxCell id="W3-eOHmykisVfeEfEwuK-10" value="哈希5" style="rounded=1;whiteSpace=wrap;html=1;" parent="1" vertex="1">
          <mxGeometry x="829" y="790" width="70" height="30" as="geometry" />
        </mxCell>
        <mxCell id="W3-eOHmykisVfeEfEwuK-27" style="edgeStyle=orthogonalEdgeStyle;rounded=0;orthogonalLoop=1;jettySize=auto;html=1;entryX=0.5;entryY=1;entryDx=0;entryDy=0;" parent="1" source="W3-eOHmykisVfeEfEwuK-11" target="W3-eOHmykisVfeEfEwuK-25" edge="1">
          <mxGeometry relative="1" as="geometry" />
        </mxCell>
        <mxCell id="W3-eOHmykisVfeEfEwuK-11" value="哈希6" style="rounded=1;whiteSpace=wrap;html=1;" parent="1" vertex="1">
          <mxGeometry x="909" y="790" width="70" height="30" as="geometry" />
        </mxCell>
        <mxCell id="W3-eOHmykisVfeEfEwuK-29" value="" style="edgeStyle=orthogonalEdgeStyle;rounded=0;orthogonalLoop=1;jettySize=auto;html=1;" parent="1" source="W3-eOHmykisVfeEfEwuK-12" target="W3-eOHmykisVfeEfEwuK-28" edge="1">
          <mxGeometry relative="1" as="geometry" />
        </mxCell>
        <mxCell id="W3-eOHmykisVfeEfEwuK-12" value="哈希7" style="rounded=1;whiteSpace=wrap;html=1;" parent="1" vertex="1">
          <mxGeometry x="1009" y="790" width="70" height="30" as="geometry" />
        </mxCell>
        <mxCell id="W3-eOHmykisVfeEfEwuK-30" style="edgeStyle=orthogonalEdgeStyle;rounded=0;orthogonalLoop=1;jettySize=auto;html=1;entryX=0.5;entryY=1;entryDx=0;entryDy=0;" parent="1" source="W3-eOHmykisVfeEfEwuK-13" target="W3-eOHmykisVfeEfEwuK-28" edge="1">
          <mxGeometry relative="1" as="geometry" />
        </mxCell>
        <mxCell id="W3-eOHmykisVfeEfEwuK-13" value="哈希8" style="rounded=1;whiteSpace=wrap;html=1;" parent="1" vertex="1">
          <mxGeometry x="1089" y="790" width="70" height="30" as="geometry" />
        </mxCell>
        <mxCell id="W3-eOHmykisVfeEfEwuK-34" style="edgeStyle=orthogonalEdgeStyle;rounded=0;orthogonalLoop=1;jettySize=auto;html=1;entryX=0.5;entryY=1;entryDx=0;entryDy=0;" parent="1" source="W3-eOHmykisVfeEfEwuK-18" target="W3-eOHmykisVfeEfEwuK-32" edge="1">
          <mxGeometry relative="1" as="geometry" />
        </mxCell>
        <mxCell id="W3-eOHmykisVfeEfEwuK-36" value="" style="edgeStyle=orthogonalEdgeStyle;rounded=0;orthogonalLoop=1;jettySize=auto;html=1;" parent="1" source="W3-eOHmykisVfeEfEwuK-18" target="W3-eOHmykisVfeEfEwuK-32" edge="1">
          <mxGeometry relative="1" as="geometry" />
        </mxCell>
        <mxCell id="W3-eOHmykisVfeEfEwuK-37" value="" style="edgeStyle=orthogonalEdgeStyle;rounded=0;orthogonalLoop=1;jettySize=auto;html=1;" parent="1" source="W3-eOHmykisVfeEfEwuK-18" target="W3-eOHmykisVfeEfEwuK-32" edge="1">
          <mxGeometry relative="1" as="geometry" />
        </mxCell>
        <mxCell id="W3-eOHmykisVfeEfEwuK-39" value="" style="edgeStyle=orthogonalEdgeStyle;rounded=0;orthogonalLoop=1;jettySize=auto;html=1;" parent="1" source="W3-eOHmykisVfeEfEwuK-18" target="W3-eOHmykisVfeEfEwuK-32" edge="1">
          <mxGeometry relative="1" as="geometry" />
        </mxCell>
        <mxCell id="W3-eOHmykisVfeEfEwuK-18" value="哈希34" style="rounded=1;whiteSpace=wrap;html=1;" parent="1" vertex="1">
          <mxGeometry x="699" y="690" width="70" height="30" as="geometry" />
        </mxCell>
        <mxCell id="W3-eOHmykisVfeEfEwuK-33" value="" style="edgeStyle=orthogonalEdgeStyle;rounded=0;orthogonalLoop=1;jettySize=auto;html=1;" parent="1" source="W3-eOHmykisVfeEfEwuK-21" target="W3-eOHmykisVfeEfEwuK-32" edge="1">
          <mxGeometry relative="1" as="geometry" />
        </mxCell>
        <mxCell id="W3-eOHmykisVfeEfEwuK-21" value="哈希12" style="rounded=1;whiteSpace=wrap;html=1;" parent="1" vertex="1">
          <mxGeometry x="529" y="690" width="70" height="30" as="geometry" />
        </mxCell>
        <mxCell id="W3-eOHmykisVfeEfEwuK-42" value="" style="edgeStyle=orthogonalEdgeStyle;rounded=0;orthogonalLoop=1;jettySize=auto;html=1;" parent="1" source="W3-eOHmykisVfeEfEwuK-25" target="W3-eOHmykisVfeEfEwuK-41" edge="1">
          <mxGeometry relative="1" as="geometry" />
        </mxCell>
        <mxCell id="W3-eOHmykisVfeEfEwuK-25" value="哈希56" style="rounded=1;whiteSpace=wrap;html=1;" parent="1" vertex="1">
          <mxGeometry x="869" y="690" width="70" height="30" as="geometry" />
        </mxCell>
        <mxCell id="W3-eOHmykisVfeEfEwuK-43" value="" style="edgeStyle=orthogonalEdgeStyle;rounded=0;orthogonalLoop=1;jettySize=auto;html=1;" parent="1" source="W3-eOHmykisVfeEfEwuK-28" target="W3-eOHmykisVfeEfEwuK-25" edge="1">
          <mxGeometry relative="1" as="geometry" />
        </mxCell>
        <mxCell id="W3-eOHmykisVfeEfEwuK-28" value="哈希78" style="rounded=1;whiteSpace=wrap;html=1;" parent="1" vertex="1">
          <mxGeometry x="1049" y="690" width="70" height="30" as="geometry" />
        </mxCell>
        <mxCell id="W3-eOHmykisVfeEfEwuK-71" value="" style="edgeStyle=orthogonalEdgeStyle;rounded=0;orthogonalLoop=1;jettySize=auto;html=1;" parent="1" source="W3-eOHmykisVfeEfEwuK-32" target="W3-eOHmykisVfeEfEwuK-70" edge="1">
          <mxGeometry relative="1" as="geometry" />
        </mxCell>
        <mxCell id="W3-eOHmykisVfeEfEwuK-32" value="哈希1234" style="rounded=1;whiteSpace=wrap;html=1;" parent="1" vertex="1">
          <mxGeometry x="619" y="570" width="70" height="30" as="geometry" />
        </mxCell>
        <mxCell id="W3-eOHmykisVfeEfEwuK-72" style="edgeStyle=orthogonalEdgeStyle;rounded=0;orthogonalLoop=1;jettySize=auto;html=1;entryX=0.5;entryY=1;entryDx=0;entryDy=0;" parent="1" source="W3-eOHmykisVfeEfEwuK-41" target="W3-eOHmykisVfeEfEwuK-70" edge="1">
          <mxGeometry relative="1" as="geometry" />
        </mxCell>
        <mxCell id="W3-eOHmykisVfeEfEwuK-41" value="哈希5678" style="rounded=1;whiteSpace=wrap;html=1;" parent="1" vertex="1">
          <mxGeometry x="959" y="570" width="70" height="30" as="geometry" />
        </mxCell>
        <mxCell id="W3-eOHmykisVfeEfEwuK-64" style="edgeStyle=orthogonalEdgeStyle;rounded=0;orthogonalLoop=1;jettySize=auto;html=1;entryX=0.5;entryY=1;entryDx=0;entryDy=0;" parent="1" source="W3-eOHmykisVfeEfEwuK-44" target="W3-eOHmykisVfeEfEwuK-2" edge="1">
          <mxGeometry relative="1" as="geometry" />
        </mxCell>
        <mxCell id="W3-eOHmykisVfeEfEwuK-44" value="交易1" style="rounded=1;whiteSpace=wrap;html=1;" parent="1" vertex="1">
          <mxGeometry x="489" y="900" width="70" height="30" as="geometry" />
        </mxCell>
        <mxCell id="W3-eOHmykisVfeEfEwuK-58" style="edgeStyle=orthogonalEdgeStyle;rounded=0;orthogonalLoop=1;jettySize=auto;html=1;entryX=0.5;entryY=1;entryDx=0;entryDy=0;" parent="1" source="W3-eOHmykisVfeEfEwuK-47" target="W3-eOHmykisVfeEfEwuK-7" edge="1">
          <mxGeometry relative="1" as="geometry" />
        </mxCell>
        <mxCell id="W3-eOHmykisVfeEfEwuK-47" value="交易2" style="rounded=1;whiteSpace=wrap;html=1;" parent="1" vertex="1">
          <mxGeometry x="569" y="900" width="70" height="30" as="geometry" />
        </mxCell>
        <mxCell id="W3-eOHmykisVfeEfEwuK-60" style="edgeStyle=orthogonalEdgeStyle;rounded=0;orthogonalLoop=1;jettySize=auto;html=1;entryX=0.5;entryY=1;entryDx=0;entryDy=0;" parent="1" source="W3-eOHmykisVfeEfEwuK-49" target="W3-eOHmykisVfeEfEwuK-8" edge="1">
          <mxGeometry relative="1" as="geometry" />
        </mxCell>
        <mxCell id="W3-eOHmykisVfeEfEwuK-49" value="交易3" style="rounded=1;whiteSpace=wrap;html=1;" parent="1" vertex="1">
          <mxGeometry x="659" y="900" width="70" height="30" as="geometry" />
        </mxCell>
        <mxCell id="W3-eOHmykisVfeEfEwuK-61" style="edgeStyle=orthogonalEdgeStyle;rounded=0;orthogonalLoop=1;jettySize=auto;html=1;" parent="1" source="W3-eOHmykisVfeEfEwuK-50" target="W3-eOHmykisVfeEfEwuK-9" edge="1">
          <mxGeometry relative="1" as="geometry" />
        </mxCell>
        <mxCell id="W3-eOHmykisVfeEfEwuK-50" value="交易4" style="rounded=1;whiteSpace=wrap;html=1;" parent="1" vertex="1">
          <mxGeometry x="739" y="900" width="70" height="30" as="geometry" />
        </mxCell>
        <mxCell id="W3-eOHmykisVfeEfEwuK-62" style="edgeStyle=orthogonalEdgeStyle;rounded=0;orthogonalLoop=1;jettySize=auto;html=1;entryX=0.5;entryY=1;entryDx=0;entryDy=0;" parent="1" source="W3-eOHmykisVfeEfEwuK-51" target="W3-eOHmykisVfeEfEwuK-10" edge="1">
          <mxGeometry relative="1" as="geometry" />
        </mxCell>
        <mxCell id="W3-eOHmykisVfeEfEwuK-51" value="交易5" style="rounded=1;whiteSpace=wrap;html=1;" parent="1" vertex="1">
          <mxGeometry x="829" y="900" width="70" height="30" as="geometry" />
        </mxCell>
        <mxCell id="W3-eOHmykisVfeEfEwuK-65" style="edgeStyle=orthogonalEdgeStyle;rounded=0;orthogonalLoop=1;jettySize=auto;html=1;entryX=0.5;entryY=1;entryDx=0;entryDy=0;" parent="1" source="W3-eOHmykisVfeEfEwuK-52" target="W3-eOHmykisVfeEfEwuK-11" edge="1">
          <mxGeometry relative="1" as="geometry" />
        </mxCell>
        <mxCell id="W3-eOHmykisVfeEfEwuK-52" value="交易6" style="rounded=1;whiteSpace=wrap;html=1;" parent="1" vertex="1">
          <mxGeometry x="909" y="900" width="70" height="30" as="geometry" />
        </mxCell>
        <mxCell id="W3-eOHmykisVfeEfEwuK-66" style="edgeStyle=orthogonalEdgeStyle;rounded=0;orthogonalLoop=1;jettySize=auto;html=1;entryX=0.5;entryY=1;entryDx=0;entryDy=0;" parent="1" source="W3-eOHmykisVfeEfEwuK-53" target="W3-eOHmykisVfeEfEwuK-12" edge="1">
          <mxGeometry relative="1" as="geometry" />
        </mxCell>
        <mxCell id="W3-eOHmykisVfeEfEwuK-53" value="交易7" style="rounded=1;whiteSpace=wrap;html=1;" parent="1" vertex="1">
          <mxGeometry x="1009" y="900" width="70" height="30" as="geometry" />
        </mxCell>
        <mxCell id="W3-eOHmykisVfeEfEwuK-67" style="edgeStyle=orthogonalEdgeStyle;rounded=0;orthogonalLoop=1;jettySize=auto;html=1;entryX=0.5;entryY=1;entryDx=0;entryDy=0;" parent="1" source="W3-eOHmykisVfeEfEwuK-54" target="W3-eOHmykisVfeEfEwuK-13" edge="1">
          <mxGeometry relative="1" as="geometry" />
        </mxCell>
        <mxCell id="W3-eOHmykisVfeEfEwuK-54" value="交易8" style="rounded=1;whiteSpace=wrap;html=1;" parent="1" vertex="1">
          <mxGeometry x="1089" y="900" width="70" height="30" as="geometry" />
        </mxCell>
        <mxCell id="W3-eOHmykisVfeEfEwuK-70" value="&lt;font style=&quot;font-size: 18px&quot;&gt;哈希1-8&lt;br&gt;&lt;/font&gt;" style="rounded=1;whiteSpace=wrap;html=1;" parent="1" vertex="1">
          <mxGeometry x="779" y="420" width="90" height="60" as="geometry" />
        </mxCell>
        <mxCell id="W3-eOHmykisVfeEfEwuK-76" value="" style="endArrow=none;html=1;fontColor=none;" parent="1" edge="1">
          <mxGeometry width="50" height="50" relative="1" as="geometry">
            <mxPoint x="480" y="960" as="sourcePoint" />
            <mxPoint x="480" y="410" as="targetPoint" />
          </mxGeometry>
        </mxCell>
        <mxCell id="W3-eOHmykisVfeEfEwuK-77" value="" style="endArrow=none;html=1;fontColor=none;" parent="1" edge="1">
          <mxGeometry width="50" height="50" relative="1" as="geometry">
            <mxPoint x="1170" y="959.9999999999998" as="sourcePoint" />
            <mxPoint x="1170" y="410" as="targetPoint" />
          </mxGeometry>
        </mxCell>
        <mxCell id="W3-eOHmykisVfeEfEwuK-78" value="" style="endArrow=none;html=1;fontColor=none;" parent="1" edge="1">
          <mxGeometry width="50" height="50" relative="1" as="geometry">
            <mxPoint x="480" y="960" as="sourcePoint" />
            <mxPoint x="1170" y="960" as="targetPoint" />
          </mxGeometry>
        </mxCell>
        <mxCell id="W3-eOHmykisVfeEfEwuK-79" value="" style="endArrow=none;html=1;fontColor=none;" parent="1" edge="1">
          <mxGeometry width="50" height="50" relative="1" as="geometry">
            <mxPoint x="480" y="410" as="sourcePoint" />
            <mxPoint x="1170" y="410" as="targetPoint" />
          </mxGeometry>
        </mxCell>
        <mxCell id="W3-eOHmykisVfeEfEwuK-80" value="&lt;font style=&quot;font-size: 25px&quot; color=&quot;#ff3333&quot;&gt;区块体&lt;/font&gt;" style="text;html=1;strokeColor=none;fillColor=none;align=center;verticalAlign=middle;whiteSpace=wrap;rounded=0;labelBackgroundColor=none;fontColor=none;" parent="1" vertex="1">
          <mxGeometry x="1045" y="440" width="114" height="40" as="geometry" />
        </mxCell>
        <mxCell id="W3-eOHmykisVfeEfEwuK-99" value="" style="edgeStyle=orthogonalEdgeStyle;rounded=0;orthogonalLoop=1;jettySize=auto;html=1;fontColor=none;" parent="1" target="W3-eOHmykisVfeEfEwuK-86" edge="1">
          <mxGeometry relative="1" as="geometry">
            <Array as="points">
              <mxPoint x="1220" y="335" />
              <mxPoint x="1220" y="335" />
            </Array>
            <mxPoint x="1160" y="335" as="sourcePoint" />
          </mxGeometry>
        </mxCell>
        <mxCell id="W3-eOHmykisVfeEfEwuK-85" value="&lt;font style=&quot;font-size: 27px&quot; color=&quot;#ff3333&quot;&gt;父区块&lt;/font&gt;" style="rounded=0;whiteSpace=wrap;html=1;labelBackgroundColor=none;fontColor=none;" parent="1" vertex="1">
          <mxGeometry x="350" y="270" width="50" height="110" as="geometry" />
        </mxCell>
        <mxCell id="W3-eOHmykisVfeEfEwuK-86" value="&lt;font style=&quot;font-size: 27px&quot; color=&quot;#ff3333&quot;&gt;子区块&lt;/font&gt;" style="rounded=0;whiteSpace=wrap;html=1;labelBackgroundColor=none;fontColor=none;" parent="1" vertex="1">
          <mxGeometry x="1237" y="270" width="50" height="110" as="geometry" />
        </mxCell>
        <mxCell id="W3-eOHmykisVfeEfEwuK-88" value="&lt;font style=&quot;font-size: 14px&quot;&gt;父区块哈希&lt;/font&gt;" style="rounded=1;whiteSpace=wrap;html=1;labelBackgroundColor=none;fontColor=none;" parent="1" vertex="1">
          <mxGeometry x="510" y="290" width="86" height="42.5" as="geometry" />
        </mxCell>
        <mxCell id="W3-eOHmykisVfeEfEwuK-92" value="&lt;font style=&quot;font-size: 14px&quot;&gt;版本&lt;/font&gt;" style="rounded=1;whiteSpace=wrap;html=1;labelBackgroundColor=none;fontColor=none;" parent="1" vertex="1">
          <mxGeometry x="613" y="290" width="86" height="42.5" as="geometry" />
        </mxCell>
        <mxCell id="W3-eOHmykisVfeEfEwuK-93" value="&lt;span style=&quot;font-size: 14px&quot;&gt;时间戳&lt;/span&gt;" style="rounded=1;whiteSpace=wrap;html=1;labelBackgroundColor=none;fontColor=none;" parent="1" vertex="1">
          <mxGeometry x="720" y="290" width="86" height="42.5" as="geometry" />
        </mxCell>
        <mxCell id="W3-eOHmykisVfeEfEwuK-94" value="&lt;span style=&quot;font-size: 14px&quot;&gt;难度&lt;/span&gt;" style="rounded=1;whiteSpace=wrap;html=1;labelBackgroundColor=none;fontColor=none;" parent="1" vertex="1">
          <mxGeometry x="821" y="290" width="86" height="42.5" as="geometry" />
        </mxCell>
        <mxCell id="W3-eOHmykisVfeEfEwuK-95" value="&lt;span style=&quot;font-size: 14px&quot;&gt;随机数&lt;/span&gt;" style="rounded=1;whiteSpace=wrap;html=1;labelBackgroundColor=none;fontColor=none;" parent="1" vertex="1">
          <mxGeometry x="930" y="290" width="86" height="42.5" as="geometry" />
        </mxCell>
        <mxCell id="W3-eOHmykisVfeEfEwuK-96" value="&lt;span style=&quot;font-size: 14px&quot;&gt;默克尔树根&lt;/span&gt;" style="rounded=1;whiteSpace=wrap;html=1;labelBackgroundColor=none;fontColor=none;" parent="1" vertex="1">
          <mxGeometry x="781" y="350" width="86" height="42.5" as="geometry" />
        </mxCell>
        <mxCell id="W3-eOHmykisVfeEfEwuK-97" value="" style="endArrow=classic;html=1;fontColor=none;exitX=0.5;exitY=0;exitDx=0;exitDy=0;" parent="1" source="W3-eOHmykisVfeEfEwuK-70" target="W3-eOHmykisVfeEfEwuK-96" edge="1">
          <mxGeometry width="50" height="50" relative="1" as="geometry">
            <mxPoint x="650" y="470" as="sourcePoint" />
            <mxPoint x="700" y="440" as="targetPoint" />
          </mxGeometry>
        </mxCell>
        <mxCell id="W3-eOHmykisVfeEfEwuK-98" value="" style="endArrow=classic;html=1;fontColor=none;" parent="1" edge="1">
          <mxGeometry width="50" height="50" relative="1" as="geometry">
            <mxPoint x="399" y="320" as="sourcePoint" />
            <mxPoint x="510" y="320" as="targetPoint" />
          </mxGeometry>
        </mxCell>
        <mxCell id="W3-eOHmykisVfeEfEwuK-100" value="&lt;font style=&quot;font-size: 25px&quot; color=&quot;#ff3333&quot;&gt;区块头&lt;/font&gt;" style="text;html=1;strokeColor=none;fillColor=none;align=center;verticalAlign=middle;whiteSpace=wrap;rounded=0;labelBackgroundColor=none;fontColor=none;" parent="1" vertex="1">
          <mxGeometry x="1049" y="310" width="114" height="40" as="geometry" />
        </mxCell>
        <mxCell id="-5Nt4eB2L1ePZLmGdrxX-2" value="" style="endArrow=none;html=1;fontColor=none;" edge="1" parent="1">
          <mxGeometry width="50" height="50" relative="1" as="geometry">
            <mxPoint x="480" y="400" as="sourcePoint" />
            <mxPoint x="480" y="270" as="targetPoint" />
          </mxGeometry>
        </mxCell>
        <mxCell id="-5Nt4eB2L1ePZLmGdrxX-3" value="" style="endArrow=none;html=1;fontColor=none;" edge="1" parent="1">
          <mxGeometry width="50" height="50" relative="1" as="geometry">
            <mxPoint x="479" y="400" as="sourcePoint" />
            <mxPoint x="1159" y="400" as="targetPoint" />
          </mxGeometry>
        </mxCell>
        <mxCell id="-5Nt4eB2L1ePZLmGdrxX-4" value="" style="endArrow=none;html=1;fontColor=none;" edge="1" parent="1">
          <mxGeometry width="50" height="50" relative="1" as="geometry">
            <mxPoint x="479" y="268" as="sourcePoint" />
            <mxPoint x="1159" y="268" as="targetPoint" />
          </mxGeometry>
        </mxCell>
        <mxCell id="-5Nt4eB2L1ePZLmGdrxX-5" value="" style="endArrow=none;html=1;fontColor=none;" edge="1" parent="1">
          <mxGeometry width="50" height="50" relative="1" as="geometry">
            <mxPoint x="1159" y="400" as="sourcePoint" />
            <mxPoint x="1159" y="270" as="targetPoint" />
          </mxGeometry>
        </mxCell>
      </root>
    </mxGraphModel>
  </diagram>
</mxfile>
